<svg xmlns="http://www.w3.org/2000/svg" xmlns:xlink="http://www.w3.org/1999/xlink" width="1080" zoomAndPan="magnify" viewBox="0 0 810 809.999993" height="1080" preserveAspectRatio="xMidYMid meet" version="1.2"><defs><clipPath id="820b1f1549"><path d="M 180.050781 115.734375 L 630.300781 115.734375 L 630.300781 694.234375 L 180.050781 694.234375 Z M 180.050781 115.734375 "/></clipPath></defs><g id="e2eeafbd56"><g clip-rule="nonzero" clip-path="url(#820b1f1549)"><path style=" stroke:none;fill-rule:nonzero;fill:#000000;fill-opacity:1;" d="M 624.832031 231.300781 C 624.5625 230.648438 624.167969 230.058594 623.671875 229.5625 L 516.339844 122.3125 C 515.84375 121.816406 515.253906 121.421875 514.601562 121.152344 C 513.945312 120.882812 513.238281 120.734375 512.527344 120.734375 L 190.464844 120.734375 C 187.503906 120.734375 185.097656 123.136719 185.097656 126.097656 L 185.097656 683.871094 C 185.097656 686.832031 187.503906 689.234375 190.464844 689.234375 L 619.882812 689.234375 C 622.84375 689.234375 625.25 686.832031 625.25 683.871094 L 625.25 233.363281 C 625.25 232.644531 625.101562 231.945312 624.832031 231.300781 Z M 517.894531 139.042969 L 606.925781 228 L 517.894531 228 Z M 190.332031 683.007812 L 190.332031 126.960938 L 507.160156 126.960938 L 507.160156 233.363281 C 507.160156 236.320312 509.566406 238.722656 512.527344 238.722656 L 619.015625 238.722656 L 619.015625 683.007812 Z M 190.332031 683.007812 "/></g></g></svg>